<!DOCTYPE svg PUBLIC "-//W3C//DTD SVG 1.1//EN" "http://www.w3.org/Graphics/SVG/1.1/DTD/svg11.dtd">
<!-- Uploaded to: SVG Repo, www.svgrepo.com, Transformed by: SVG Repo Mixer Tools -->
<svg fill="#ffffff" width="800px" height="800px" viewBox="0 0 96 96" xmlns="http://www.w3.org/2000/svg" stroke="#ffffff">
<g id="SVGRepo_bgCarrier" stroke-width="0"/>
<g id="SVGRepo_tracerCarrier" stroke-linecap="round" stroke-linejoin="round"/>
<g id="SVGRepo_iconCarrier"> <title/> <g> <path d="M30,60H6A6,6,0,0,0,6,72H24V90a6,6,0,0,0,12,0V66A5.9966,5.9966,0,0,0,30,60Z"/> <path d="M90,60H66a5.9966,5.9966,0,0,0-6,6V90a6,6,0,0,0,12,0V72H90a6,6,0,0,0,0-12Z"/> <path d="M66,36H90a6,6,0,0,0,0-12H72V6A6,6,0,0,0,60,6V30A5.9966,5.9966,0,0,0,66,36Z"/> <path d="M30,0a5.9966,5.9966,0,0,0-6,6V24H6A6,6,0,0,0,6,36H30a5.9966,5.9966,0,0,0,6-6V6A5.9966,5.9966,0,0,0,30,0Z"/> </g> </g>
</svg>