<!DOCTYPE svg PUBLIC "-//W3C//DTD SVG 1.1//EN" "http://www.w3.org/Graphics/SVG/1.1/DTD/svg11.dtd">
<!-- Uploaded to: SVG Repo, www.svgrepo.com, Transformed by: SVG Repo Mixer Tools -->
<svg fill="#ffffff" width="800px" height="800px" viewBox="0 0 96 96" xmlns="http://www.w3.org/2000/svg" stroke="#ffffff">
<g id="SVGRepo_bgCarrier" stroke-width="0"/>
<g id="SVGRepo_tracerCarrier" stroke-linecap="round" stroke-linejoin="round"/>
<g id="SVGRepo_iconCarrier"> <title/> <g> <path d="M30,0H6A5.9966,5.9966,0,0,0,0,6V30a6,6,0,0,0,12,0V12H30A6,6,0,0,0,30,0Z"/> <path d="M90,0H66a6,6,0,0,0,0,12H84V30a6,6,0,0,0,12,0V6A5.9966,5.9966,0,0,0,90,0Z"/> <path d="M30,84H12V66A6,6,0,0,0,0,66V90a5.9966,5.9966,0,0,0,6,6H30a6,6,0,0,0,0-12Z"/> <path d="M90,60a5.9966,5.9966,0,0,0-6,6V84H66a6,6,0,0,0,0,12H90a5.9966,5.9966,0,0,0,6-6V66A5.9966,5.9966,0,0,0,90,60Z"/> </g> </g>
</svg>